PathFileType	4	(X/Y/Z)	C:/Users/beibeiliu/ov580/test_trc/User3\out6_training_dense_right.trc
DataRate	CameraRate	NumFrames	NumMarkers	Units	OrigDataRate	OrigDataStartFrame	OrigNumFrames
120	120	8	19	mm	120	63	500
Frame#	Time	ThumbCMC			ThumbMCP			ThumbIP			ThumbTip			IndexMCP			IndexPIP			IndexTip			MiddleMCP			MiddlePIP			MiddleTip			RingMCP			RingPIP			RingTip			PinkyMCP			PinkyPIP			PinkyTip			BackHand1			BackHand2			BackHand3	
		X0	Y0	Z0	X1	Y1	Z1	X2	Y2	Z2	X3	Y3	Z3	X4	Y4	Z4	X5	Y5	Z5	X6	Y6	Z6	X7	Y7	Z7	X8	Y8	Z8	X9	Y9	Z9	X10	Y10	Z10	X11	Y11	Z11	X12	Y12	Z12	X13	Y13	Z13	X14	Y14	Z14	X15	Y15	Z15	X16	Y16	Z16	X17	Y17	Z17	X18	Y18	Z18	
62	0.516667	108.865	24.6307	35.5208	98.367	16.3157	4.68362	103.198	7.47135	-28.0585	119.759	-7.24076	-39.8197	149.617	47.1214	-22.8552	155.215	52.0875	-47.4751	159.119	60.2477	-73.8127	157.99	17.1576	-36.006	136.916	-5.62289	-43.8022	126.866	-12.2819	-3.92366	166.182	-0.205633	-21.4981	141.73	-22.2038	-21.6669	136.16	-13.2422	12.3856	177.979	-12.8199	-11.2302	153.183	-27.8028	-12.5533	143.997	-17.2026	15.0968	174.917	22.9046	31.0654	171.264	16.9368	62.7936	145.169	38.6894	39.1398	
63	0.525	110.266	26.018	30.1402	102.592	17.8041	-0.639646	106.582	8.76392	-30.4402	128.576	-8.07418	-43.0895	155.422	48.9178	-24.809	158.815	59.1285	-51.9623	170.428	59.4422	-74.9402	163.813	19.2177	-33.3587	146.45	-3.99004	-45.28	132.748	-11.7482	-4.17398	171.943	1.83833	-20.5691	152.345	-21.5118	-21.7079	141.75	-14	8.4573	182.498	-9.99182	-10.0673	160.892	-24.1603	-14.7417	148.184	-18.9377	14.0248	178.885	27.3473	28.7819	169.254	20.1088	62.6379	144.077	41.8438	37.1321	
64	0.533333	111.247	25.0726	31.773	104.161	18.3814	-6.72083	108.352	6.76927	-32.0088	133.087	-8.45857	-42.7185	155.167	51.0988	-26.9532	164.818	57.1166	-56.3857	176.126	57.4255	-77.5262	164.846	20.632	-36.0604	151.606	-7.47721	-44.901	132.543	-11.0981	-10.0054	174.64	2.06829	-22.1869	154.223	-24.3652	-19.9971	142.162	-14.2961	5.68631	183.944	-8.62463	-10.9602	162.434	-26.4334	-12.7337	151.239	-20.407	14.9457	180.845	27.1667	27.3456	170.621	23.0103	60.4953	146.276	41.6353	36.6361	
65	0.541667	111.389	26.1807	25.0689	107.185	15.6951	-7.0015	112.103	4.16948	-34.5507	132.273	-12.5834	-42.6444	159.485	45.4145	-30.9339	172.915	46.4515	-58.0186	180.74	47.7555	-78.9139	171.184	11.5282	-39.489	153.646	-12.5693	-46.4005	133.132	-13.8204	-13.3536	173.846	-2.1947	-25.7959	154.122	-24.8783	-23.9603	140.916	-13.1174	4.83	183.866	-13.3308	-12.4921	161.869	-30.8313	-9.82269	151.087	-19.7353	12.3943	180.151	25.8364	27.6323	167.408	23.4058	58.1274	150.358	42.9472	30.8266	
66	0.55	111.373	24.8385	19.4337	106.106	10.9654	-10.1156	113.873	-4.11206	-39.5552	133.572	-21.2136	-42.2947	164.896	34.7596	-38.5413	172.675	36.7635	-62.2706	184.735	31.0672	-89.0881	170.687	4.44546	-38.7932	152.309	-23.0276	-46.1212	134.034	-18.8946	-9.07837	175.503	-13.6348	-27.2787	152.949	-34.2451	-20.084	140.693	-19.3611	4.08915	184.843	-20.7599	-11.5186	164.206	-37.0296	-11.8642	151.566	-24.6124	15.989	183.778	21.3613	21.6457	169.778	21.3269	52.3766	148.725	39.0064	27.1096	
67	0.558333	110.631	21.8409	15.0128	105.74	3.95955	-13.648	115.396	-15.2427	-37.1441	129.655	-34.1623	-42.0648	165.155	19.6323	-43.683	173.289	14.3433	-70.1397	183.774	1.23358	-91.3435	165.816	-11.4603	-43.617	149.738	-37.0505	-42.8767	131.707	-28.8383	-8.94164	176.088	-22.3421	-23.3175	153.071	-44.0033	-20.3043	140.11	-26.788	5.52329	184.891	-32.2905	-8.09845	157.731	-45.1288	-8.07855	148.932	-30.8161	15.3139	180.484	16.1207	19.3343	171.141	20.4243	51.1216	148.734	36.2191	16.9686	
68	0.566667	110.725	15.7616	11.784	103.549	-3.57897	-12.5856	105.734	-27.5304	-37.6523	124.137	-47.8691	-40.254	160.399	1.56268	-46.6938	169.512	-10.8687	-69.48	172.79	-26.4594	-91.9065	164.705	-29.3741	-42.5353	144.452	-51.1395	-37.8521	127.655	-36.1431	-4.98918	172.503	-37.3566	-23.188	148.012	-54.3882	-16.9212	135.345	-31.0295	7.07813	180.163	-42.6325	-8.54182	158.656	-55.4925	-6.85249	145.316	-33.7625	14.4736	178.332	9.80269	13.023	171.882	16.9351	41.0885	152.328	27.2443	11.6503	
69	0.575	113.506	9.03954	7.50723	101.006	-9.8588	-13.9244	104.685	-35.9302	-36.845	117.488	-55.4727	-36.9447	154.514	-10.9221	-55.3026	159.814	-26.1352	-74.1425	163.365	-43.7071	-91.7281	157.757	-36.4866	-43.5759	135.2	-59.3438	-37.5612	125.222	-42.1181	-2.61548	167.251	-44.011	-24.1814	143.176	-61.5201	-16.808	135.15	-39.0102	9.72138	173.903	-49.8538	-11.6556	155.003	-65.1712	-2.32093	143.643	-43.6143	15.3419	179.237	1.23982	6.91281	167.027	16.1343	36.5964	145.531	23.5294	8.49117	
